<svg width="23" height="30" viewBox="0 0 23 30" fill="none" xmlns="http://www.w3.org/2000/svg">
<path d="M20.3644 3.06779C18.9111 3.06779 17.7287 4.24111 17.7287 5.68328V10.637C17.7287 12.1149 16.6372 13.3441 15.2123 13.5738V3.68381C15.2123 1.65255 13.547 0 11.5 0C9.45308 0 7.78776 1.65255 7.78776 3.68381V17.8472C6.36282 17.6175 5.27139 16.3883 5.27139 14.9104V9.95668C5.27139 8.51451 4.08901 7.34119 2.63569 7.34119C1.18238 7.34119 0 8.51445 0 9.95668V14.9104C0 19.2748 3.45124 22.8545 7.7877 23.1033V29.0426H6.34044C6.07401 29.0426 5.85801 29.2569 5.85801 29.5213C5.85801 29.7857 6.07401 30 6.34044 30H16.6596C16.926 30 17.142 29.7857 17.142 29.5213C17.142 29.2569 16.926 29.0426 16.6596 29.0426H15.2123V18.8299C19.5488 18.581 23 15.0014 23 10.6369V5.68321C23.0001 4.24104 21.8177 3.06779 20.3644 3.06779ZM22.0352 10.637C22.0352 14.6343 18.7581 17.8863 14.7299 17.8863C14.4635 17.8863 14.2475 18.1006 14.2475 18.365V29.0426H8.75261V22.6384C8.75261 22.3741 8.53661 22.1597 8.27019 22.1597C4.24203 22.1597 0.964907 18.9077 0.964907 14.9104V9.95674C0.964907 9.04251 1.7144 8.2987 2.63576 8.2987C3.55706 8.2987 4.30661 9.04251 4.30661 9.95674V14.9104C4.30661 16.9171 5.82913 18.5764 7.78783 18.8135V19.6416C7.78783 19.906 8.00383 20.1203 8.27025 20.1203C8.53668 20.1203 8.75267 19.906 8.75267 19.6416V3.68381C8.75261 2.18049 9.9851 0.957447 11.5 0.957447C13.015 0.957447 14.2475 2.18049 14.2475 3.68381V15.368C14.2475 15.6324 14.4635 15.8468 14.7299 15.8468C14.9963 15.8468 15.2123 15.6324 15.2123 15.368V14.54C17.171 14.3029 18.6935 12.6435 18.6935 10.6369V5.68321C18.6935 4.76898 19.4431 4.02517 20.3644 4.02517C21.2857 4.02517 22.0352 4.76898 22.0352 5.68321V10.637Z" fill="black"/>
</svg>
